<?xml version="1.0"?>
<svg xmlns:rdf="http://www.w3.org/1999/02/22-rdf-syntax-ns#" xmlns="http://www.w3.org/2000/svg" xmlns:cc="http://web.resource.org/cc/" xmlns:xlink="http://www.w3.org/1999/xlink" xmlns:dc="http://purl.org/dc/elements/1.1/" xmlns:svg="http://www.w3.org/2000/svg" id="Layer_1" style="enable-background:new 0 0 397.491 310.424" xml:space="preserve" viewBox="0 0 397.491 310.424" version="1.1" y="0px" x="0px">
<path fill="#FBB040" clip-rule="evenodd" d="m207.06 54.904c0.598-1.638 1.439-3.102 1.642-4.513 0.67-4.698-0.249-8.639-1.231-11.898-3.029-10.049-10.745-17.62-19.694-20.925-5.476-2.022-16.434-1.346-21.336 0.411-6.498 2.327-13.196 8.149-15.181 14.36-0.61 0.485-1.833 0.355-1.642 1.641-2.098 6.796-2.241 13.63-0.821 19.695 0.219 0.934 2.064 5.706 2.462 6.155 2.104 2.367 5.019 6.065 6.565 7.385 3.003 2.564 7.916 4.21 12.309 5.744 1.734 0.606 3.091 1.473 4.514 1.642 4.189 0.498 8.276-1.084 12.719-0.821 1.143-1.191-1.347-1.064-0.821-2.872 0.098-1.625 1.683-1.761 2.873-1.23 0.135 1.503-0.456 2.28-0.821 3.282 1.68-0.098 2.311-1.245 4.103-1.23 1.093-1.212-1.523-1.205-0.821-3.283 0.775-1.035 2.56-2.677 4.104-1.641-0.053 1.726-1.59 1.966-1.642 3.693 6.93-2.304 10.33-9.025 12.73-15.595z" fill-rule="evenodd"/>
<path fill="#FBB040" clip-rule="evenodd" d="m51.141 94.293c-0.485 0.473-1.45 0.465-2.462 0.411-2.583 2.477-4.21 5.91-6.565 8.616-1.022 5.495-3.496 9.691-3.283 15.181 0.634 16.352 10.852 29.01 29.132 28.722 0.781-1.271 0.517-3.586 3.282-2.872 1.224 1.954-1.107 1.947-1.23 3.693 11.626 0.822 17.916-3.693 23.798-8.617 1.434-5.699 5.357-10.547 6.154-17.232 0.223-1.865 0.18-4.418 0-6.154-1.424-13.787-8.426-23.666-21.336-25.028-0.323 0.336 0.33 2.709-1.641 2.461-1.501-0.746-0.868-1.492-0.821-3.282-9.392-2.129-19.425-0.619-25.028 4.102z" fill-rule="evenodd"/>
<path fill="#FBB040" clip-rule="evenodd" d="m375.28 101.27c-3.434-0.946-7.103-1.056-11.077-0.41-1.98 0.321-4.917 2.041-6.156 2.462-3.598 1.223-3.399 1.521-5.333 3.692-3.009 3.38-5.551 7.129-6.975 11.488-1.866 5.713 0.543 19.488 3.691 22.978 5.734 6.353 17.401 10.863 26.671 6.976 0.943 0.149 0.391 1.796 1.64 1.641 2.954-1.618 6.466-2.87 8.617-4.924 4.691-4.477 7.167-9.727 7.386-18.053 0.17-6.465-1.387-11.67-3.282-15.182-2.631-4.871-7.234-8.674-12.31-9.848-1.633 0.814 1.602 3.802-1.642 4.104-2.61-1.2 0.38-3.19-1.24-4.93z" fill-rule="evenodd"/>
<path fill="#FBB040" clip-rule="evenodd" d="m238.65 159.53c3.167 0.473 7.5-0.014 10.257-0.41 4.243-0.609 7.83-2.941 10.258-4.923 3.53-2.886 4.552-3.873 6.975-8.206 1.99-3.56 3.479-6.862 3.693-11.079 0.5-9.79-2.341-17.791-6.155-22.977-2.563-3.486-4.485-5.307-6.975-6.975-0.688-0.461-1.234-1.419-1.642-1.642-5.226-2.861-10.816-0.63-16.002 0.411-2.599 0.521-5.28 1.438-8.205 0.82-1.149 1.449-3.354 1.843-6.155 1.641-6.837 4.805-13.235 14.809-14.361 25.439-1.377 13.006 6.849 22.607 15.182 26.259 3.254 1.426 6.85 1.725 10.259 0.41 0.93 1.33 1.61 1.04 2.87 1.23z" fill-rule="evenodd"/>
<path fill="#FBB040" clip-rule="evenodd" d="m255.47 171.84c5.088 3.242 10.409 5.33 17.232 6.154 17.491 2.119 28.815-4.727 33.234-16.412 8.383-22.166-10.024-50.406-33.646-42.26 0.887 9.287 2.405 20.507-1.23 26.67-0.941 1.595-3.293 3.313-4.924 5.334-1.714 2.124-3.196 4.333-4.923 5.743-3.646 2.979-7.838 4.182-11.898 4.926 0.19 4.19 2.89 7.77 6.16 9.85z" fill-rule="evenodd"/>
<path fill="#004813" clip-rule="evenodd" d="m84.974 17.233c-0.53 1.624 1.351 0.837 0.82 2.462-1.125 1.474-1.841 3.355-2.872 4.923 1.894 0.979 3.192 2.552 4.103 4.513 7.605 1.234 9.847 5.646 13.54 11.899 0.741 1.254 5.291 7.743 0.821 8.205-2.275 0.236-4.119-5.829-5.334-7.795-3.442-5.568-5.524-9.802-13.95-8.616-1.327-0.178-1.629-1.38-2.462-2.052-3.023 1.491-5.542 3.484-8.206 5.334-5.45 0.464-9.909 1.636-14.771 1.23-2.165-0.18-5.041-0.312-7.386-0.821-1.66-0.359-6.65-2.456-8.616-3.692-3.491-2.194-7.667-7.959-9.027-13.129-0.583-2.216-1.103-4.963-1.23-6.976-0.227-3.628-0.473-11.403 5.749-11.487 0.624 2.771-1.749 4.87-2.051 7.385-1.002 8.354 4.191 19.067 9.438 22.156 2.267 1.336 4.797 0.993 6.564 2.872 9.642 1.89 24.938 0.723 28.721-6.975 0.45-0.915 0.237-2.713 0.821-4.513 1.293-3.992 3.929-6.424 4.103-11.489 0.098-2.847-0.829-5.849-2.051-8.616-0.116-0.663 0.388-0.706 0.411-1.231 7.076-2.698 6.147 13.321 2.871 16.413z" fill-rule="evenodd"/>
<path fill="#004813" clip-rule="evenodd" d="m305.72 3.282c1.235 0.347 2.312 2.314 1.23 3.693-2.41-0.113-2.99-2.585-1.23-3.693z" fill-rule="evenodd"/>
<path fill="#004813" clip-rule="evenodd" d="m40.25 4.103c0.858-0.174 1.086 0.281 1.641 0.41 0.36 1.317-1.064 0.851-1.23 1.642-1.044-0.042-0.97-1.53-0.411-2.052z" fill-rule="evenodd"/>
<path fill="#004813" clip-rule="evenodd" d="m37.789 7.795c1.461-0.093 2.145 0.59 2.052 2.052-1.368 0.708-2.229-0.152-2.052-2.052z" fill-rule="evenodd"/>
<path fill="#004813" clip-rule="evenodd" d="m305.3 7.795c1.843-0.063 1.713 1.844 1.642 3.693-2.64 0.645-3-2.703-1.64-3.693z" fill-rule="evenodd"/>
<path fill="#004813" clip-rule="evenodd" d="m39.02 15.181c-1.617 0.25-1.817-0.918-2.052-2.052 1.48-1.225 2.935 0.77 2.052 2.052z" fill-rule="evenodd"/>
<path fill="#004813" clip-rule="evenodd" d="m306.13 12.719c1.667-0.385 1.422 2.222 0.82 2.872-2.05 0.031-2.52-2.221-0.82-2.872z" fill-rule="evenodd"/>
<path fill="#004813" clip-rule="evenodd" d="m182.22 17.233c0.267 1.497-0.277 2.185-0.821 2.872-1.099-0.27-1.561-1.176-2.462-1.642 0.77-0.729 1.65-1.351 3.28-1.23z" fill-rule="evenodd"/>
<path fill="#004813" clip-rule="evenodd" d="m187.14 19.695c-1.241 1.195-4.096 0.654-3.693-2.051 1.4-0.897 4.32-0.395 3.69 2.051z" fill-rule="evenodd"/>
<path fill="#004813" clip-rule="evenodd" d="m174.42 20.925c-1.12 0.299-0.826-0.815-1.642-0.82-0.46-4.808 5.13-0.688 1.64 0.82z" fill-rule="evenodd"/>
<path fill="#004813" clip-rule="evenodd" d="m306.54 18.053c1.727 0.064 1.811 2.016 1.23 3.283-2.17 0.566-2.73-2.643-1.23-3.283z" fill-rule="evenodd"/>
<path fill="#004813" clip-rule="evenodd" d="m39.02 18.874c1.781-0.141 2.153 1.129 2.461 2.462-1.261 0.583-1.845 0.184-2.872-0.411-0.13-0.951 0.066-1.575 0.411-2.051z" fill-rule="evenodd"/>
<path fill="#004813" clip-rule="evenodd" d="m171.14 19.284c0.084 1.179-0.104 2.084-0.821 2.462-1.89-0.09-1.14-2.868 0.82-2.462z" fill-rule="evenodd"/>
<path fill="#004813" clip-rule="evenodd" d="m166.21 20.925c0.857-0.173 1.087 0.281 1.641 0.411-0.217 0.33-0.428 0.666-0.411 1.231-1.08 0.123-1.34-0.568-1.23-1.642z" fill-rule="evenodd"/>
<path fill="#004813" clip-rule="evenodd" d="m42.712 22.977h0.821c1.305 1.381 3.919 3.347 3.282 5.334-2.162 0.675-4.859-3.048-4.103-5.334z" fill-rule="evenodd"/>
<path fill="#004813" clip-rule="evenodd" d="m163.34 22.977c0.885 1.006 0.306 3.035-1.231 2.872-1.26-0.868-0.94-3.208 1.23-2.872z" fill-rule="evenodd"/>
<path fill="#004813" clip-rule="evenodd" d="m309 23.387c1.781-0.14 2.152 1.129 2.462 2.461-1.71 1.341-3.74-0.695-2.46-2.461z" fill-rule="evenodd"/>
<path fill="#004813" clip-rule="evenodd" d="m72.254 25.849c-0.317 1.872-1.622 2.756-1.642 4.924-1.71 0.206-1.81-1.199-3.692-0.82-2.072-0.021-2.117 1.987-3.693 2.462-0.583-0.785-1.559-1.177-1.641-2.462 2.707-2.218 7.549-2.3 10.668-4.104z" fill-rule="evenodd"/>
<path fill="#004813" clip-rule="evenodd" d="m158.42 25.849c1.768-0.394 1.389 2.594 0.82 3.283-1.63-0.736-1.79-1.794-0.82-3.283z" fill-rule="evenodd"/>
<path fill="#004813" clip-rule="evenodd" d="m313.92 26.259c1.667-0.386 1.422 2.222 0.82 2.872-1.85 0.054-1.95-2.088-0.82-2.872z" fill-rule="evenodd"/>
<path fill="#004813" clip-rule="evenodd" d="m52.149 27.901c1.12-0.299 0.827 0.815 1.642 0.82-0.396 0.971-0.72 2.016-2.462 1.642-0.325-1.419 0.456-1.733 0.82-2.462z" fill-rule="evenodd"/>
<path fill="#004813" clip-rule="evenodd" d="m55.842 29.131c0.934 0.297 2.096 0.366 2.873 0.821-0.414 0.816-0.709 1.752-1.642 2.051-1.537 0.163-2.116-1.866-1.231-2.872z" fill-rule="evenodd"/>
<path fill="#004813" clip-rule="evenodd" d="m316.38 29.131c1.739-0.098 3.25 0.033 3.691 1.231-0.339 1.438-1.635 1.92-2.87 2.461-0.18-0.505-0.525-0.843-1.232-0.821-0.23-1.331 0.28-1.907 0.41-2.871z" fill-rule="evenodd"/>
<path fill="#004813" clip-rule="evenodd" d="m336.08 29.952c0.827 1.033-0.228 2.811-1.642 2.872-0.78-0.986 0.03-3.006 1.64-2.872z" fill-rule="evenodd"/>
<path fill="#004813" clip-rule="evenodd" d="m332.38 30.772c-0.496 1.829-2.147 2.502-3.692 3.283-0.181-0.365-0.359-0.733-0.821-0.82 0.11-2.065 2.67-3.454 4.51-2.463z" fill-rule="evenodd"/>
<path fill="#004813" clip-rule="evenodd" d="m154.31 30.772c1.801-0.296 1.641 1.368 1.642 2.872-1.52-0.265-2.42-1.403-1.64-2.872z" fill-rule="evenodd"/>
<path fill="#004813" clip-rule="evenodd" d="m163.75 30.772c0.883 0.348 1.451 1.011 1.231 2.462-1.132 0.783-2.818 1.012-3.282 2.462-1.317 0.359-0.851-1.064-1.642-1.231 0.41-2.053 2.87-2.051 3.69-3.693z" fill-rule="evenodd"/>
<path fill="#004813" clip-rule="evenodd" d="m325.82 31.183c0.047 1.551-0.803 2.207-2.052 2.462-0.011-0.398-0.502-0.318-0.821-0.41-0.53-2.114 1.54-3.085 2.87-2.052z" fill-rule="evenodd"/>
<path fill="#004813" clip-rule="evenodd" d="m153.08 34.055c1.378-0.421 0.639 1.276 0.82 2.052h-1.641c-0.35-1.308 0.36-1.558 0.82-2.052z" fill-rule="evenodd"/>
<path fill="#004813" clip-rule="evenodd" d="m158.83 36.107h1.23c0.319 0.912 0.862 1.6 0.821 2.872h-2.051c-0.2-0.934-0.82-2.096 0-2.872z" fill-rule="evenodd"/>
<path fill="#004813" clip-rule="evenodd" d="m153.9 38.158c0.663-0.116 0.707 0.388 1.231 0.41-0.429 0.939-0.26 2.475-0.821 3.282-1.58-0.621-1.14-2.462-0.41-3.692z" fill-rule="evenodd"/>
<path fill="#004813" clip-rule="evenodd" d="m157.19 39.389h1.642c0.377 0.583 0.35 3.388-1.642 2.872-0.82-0.776-0.2-1.938 0-2.872z" fill-rule="evenodd"/>
<path fill="#004813" clip-rule="evenodd" d="m150.21 40.21c1.773 0.037 1.345 3.891 1.231 4.513-1.75-0.061-2.11-3.12-1.23-4.513z" fill-rule="evenodd"/>
<path fill="#004813" clip-rule="evenodd" d="m157.6 44.312c1.469-0.239 1.247 1.214 1.231 2.462-1.263 0.287-0.789 0.287-2.052 0 0-1.087-0.23-2.415 0.82-2.462z" fill-rule="evenodd"/>
<path fill="#004813" clip-rule="evenodd" d="m156.37 53.75c-0.989-10.044 9.585-4.77 10.258 0.41 0.583 4.496-6.108 9.051-6.976 1.641-0.39-1.393-2.3-1.256-3.28-2.051z" fill-rule="evenodd"/>
<path fill="#004813" clip-rule="evenodd" d="m151.03 50.877h1.231c-0.004 1.09 0.155 2.343-0.411 2.873-1.11-0.169-1.69-1.951-0.82-2.873z" fill-rule="evenodd"/>
<path fill="#004813" clip-rule="evenodd" d="m152.26 55.801c1.425-0.144 1.717 1.927 1.231 2.462-1.044-0.05-1.591-0.598-1.642-1.641 0.4-0.012 0.32-0.503 0.41-0.821z" fill-rule="evenodd"/>
<path fill="#004813" clip-rule="evenodd" d="m154.31 59.494c0.973 0.227 1.703 1.586 0.821 2.462-1.55 0.351-1.45-1.837-0.82-2.462z" fill-rule="evenodd"/>
<path fill="#004813" clip-rule="evenodd" d="m158.42 62.776h1.231v2.461c-1.84 0.56-1.99-1.651-1.23-2.461z" fill-rule="evenodd"/>
<path fill="#004813" clip-rule="evenodd" d="m162.52 66.059c0.06 1.018 0.076 1.991-0.82 2.051-1.082 0.125-1.058-0.856-1.231-1.641 0.47-0.344 1.1-0.541 2.05-0.41z" fill-rule="evenodd"/>
<path fill="#004813" clip-rule="evenodd" d="m166.21 68.11c1.057 0.311 1.426 1.31 1.23 2.873-2.17 0.335-2.49-2.005-1.23-2.873z" fill-rule="evenodd"/>
<path fill="#004813" clip-rule="evenodd" d="m172.37 72.213c-1.154-0.077-1.748-0.714-1.641-2.051 1.71-1.912 3.99 0.97 1.64 2.051z" fill-rule="evenodd"/>
<path fill="#004813" clip-rule="evenodd" d="m185.09 69.751c0.194 2.246-1.243 2.86-2.872 3.282-1.69-1.392 0.01-3.987 2.87-3.282z" fill-rule="evenodd"/>
<path fill="#004813" clip-rule="evenodd" d="m176.06 70.572c0.951-0.13 1.575 0.066 2.051 0.411 0.331 1.835-0.729 2.279-2.051 2.461-0.58-0.548-0.58-2.324 0-2.872z" fill-rule="evenodd"/>
<path fill="#004813" clip-rule="evenodd" d="m71.434 90.267c0.237 2.426-1.422 2.955-3.693 2.872-0.042-1.272 0.502-1.96 0.82-2.872 1.702 0.11 1.599-0.539 2.873 0z" fill-rule="evenodd"/>
<path fill="#004813" clip-rule="evenodd" d="m66.51 91.908c-0.183 1.292-2.219 2.089-3.282 1.231-0.427-2.306 2.414-2.504 3.282-1.231z" fill-rule="evenodd"/>
<path fill="#004813" clip-rule="evenodd" d="m58.714 92.318c2.218-0.078 1.221 3.563-0.821 2.873-0.065-1.297-0.014-2.477 0.821-2.873z" fill-rule="evenodd"/>
<path fill="#004813" clip-rule="evenodd" d="m52.97 96.011c1.843-0.319 1.36 2.564 0.411 2.872-1.717-0.061-1.284-2.284-0.411-2.872z" fill-rule="evenodd"/>
<path fill="#004813" clip-rule="evenodd" d="m50.508 99.704c-0.078 1.564-0.583 2.7-2.052 2.872-1.033-1.34-0.062-3.408 2.052-2.876z" fill-rule="evenodd"/>
<path fill="#004813" clip-rule="evenodd" d="m366.85 101.76c-0.004 2.595-1.476 3.723-4.104 3.693-1.49-2.59 1.1-4.26 4.1-3.69z" fill-rule="evenodd"/>
<path fill="#004813" clip-rule="evenodd" d="m371.36 102.58c0.002 1.506-1.436 1.573-2.051 2.462-3.03-0.98 0.3-5.094 2.05-2.46z" fill-rule="evenodd"/>
<path fill="#004813" clip-rule="evenodd" d="m374.65 104.63c-1.16-0.339-1.062 0.579-2.052 0.411-1.68-1.73 1.477-4.197 2.462-2.052-0.32 0.36-0.44 0.92-0.41 1.64z" fill-rule="evenodd"/>
<path fill="#004813" clip-rule="evenodd" d="m56.252 102.58c1.296 5.297-6.235 9.081-7.796 4.103-0.063-1.841 1.844-1.711 3.692-1.641 1.883-0.31 1.852-2.53 4.104-2.46z" fill-rule="evenodd"/>
<path fill="#004813" clip-rule="evenodd" d="m361.52 104.22c-0.322 2.139-2.17 2.754-2.872 4.513-1.035-0.607-1.695-1.587-2.052-2.872 1.07-1.18 3.17-2.36 4.92-1.64z" fill-rule="evenodd"/>
<path fill="#004813" clip-rule="evenodd" d="m45.995 104.22h1.231c0.561 0.524 0.561 1.937 0 2.461-0.736 0.052-0.865-0.502-1.641-0.41-0.131-0.95 0.065-1.58 0.41-2.05z" fill-rule="evenodd"/>
<path fill="#004813" clip-rule="evenodd" d="m246.22 105.04c0.176 1.817-0.685 2.598-2.053 2.872-1.14-1.62 0.25-4.3 2.05-2.87z" fill-rule="evenodd"/>
<path fill="#004813" clip-rule="evenodd" d="m251.56 105.86c-0.288 1.353-0.875 2.407-2.872 2.051-0.3-1.87 1.41-3.21 2.87-2.05z" fill-rule="evenodd"/>
<path fill="#004813" clip-rule="evenodd" d="m239.25 106.27c-0.02 1.621-0.841 2.441-2.461 2.462-0.35-2.22 0.81-3.38 2.46-2.46z" fill-rule="evenodd"/>
<path fill="#004813" clip-rule="evenodd" d="m231.04 107.09c1.119-0.298 0.825 0.815 1.642 0.821 0.02 1.251-0.373 2.089-1.232 2.462-1.118 0.299-0.825-0.815-1.641-0.821-0.02-1.25 0.87-1.59 1.23-2.46z" fill-rule="evenodd"/>
<path fill="#004813" clip-rule="evenodd" d="m255.66 107.09c1.458 1.052 0.545 3.178-1.23 3.283-0.86-1.06-0.46-3.5 1.23-3.28z" fill-rule="evenodd"/>
<path fill="#004813" clip-rule="evenodd" d="m353.72 107.5h1.642c0.469 1.694 0.609 3.367-0.82 4.104-2.18-0.24-2.4-3.2-0.82-4.1z" fill-rule="evenodd"/>
<path fill="#004813" clip-rule="evenodd" d="m43.943 108.32c1.475 0.29 0.577 1.926 0 2.462-0.913-0.17-0.321-2.18 0-2.46z" fill-rule="evenodd"/>
<path fill="#004813" clip-rule="evenodd" d="m226.12 109.14c0.539 0.145 0.645 0.723 1.23 0.82-0.714 1.201-1.212 2.618-2.461 3.283-3.11-0.75-0.76-3.84 1.23-4.1z" fill-rule="evenodd"/>
<path fill="#004813" clip-rule="evenodd" d="m41.892 112.01c1.42 0.302 1.396 2.047 0.821 3.282-2.163 0.33-1.916-2.57-0.821-3.28z" fill-rule="evenodd"/>
<path fill="#004813" clip-rule="evenodd" d="m48.867 113.24c0.663-0.116 0.706 0.388 1.23 0.41 0.107 1.338-0.487 1.975-1.641 2.051-0.9-0.86-0.084-1.82 0.411-2.46z" fill-rule="evenodd"/>
<path fill="#004813" clip-rule="evenodd" d="m219.55 113.65h2.872c0.334 2.11-0.331 3.225-1.23 4.103-1.55-0.48-2.59-2.28-1.64-4.1z" fill-rule="evenodd"/>
<path fill="#004813" clip-rule="evenodd" d="m349.62 113.65c1.026-0.069 1.285 0.63 1.642 1.23-0.077 1.154-0.715 1.748-2.053 1.642-0.93-0.91 0.03-2.05 0.41-2.87z" fill-rule="evenodd"/>
<path fill="#004813" clip-rule="evenodd" d="m41.892 116.12c1.417-0.134 1.501 2.143 0.821 2.872-1.668 0.38-1.423-2.22-0.821-2.87z" fill-rule="evenodd"/>
<path fill="#004813" clip-rule="evenodd" d="m48.457 116.12c0.889 0.653 0.648 3.629-1.231 2.872-0.263-1.63 0.521-2.22 1.231-2.87z" fill-rule="evenodd"/>
<path fill="#004813" clip-rule="evenodd" d="m350.03 116.94c1.553 0.939-0.083 3.059-1.641 3.282-0.27-1.9 0.74-2.54 1.64-3.28z" fill-rule="evenodd"/>
<path fill="#004813" clip-rule="evenodd" d="m219.14 118.58c0.174 1.68-0.868 2.142-1.643 2.872-1.048-0.046-0.814-1.374-0.82-2.462 0.48-0.47 1.45-0.47 2.46-0.41z" fill-rule="evenodd"/>
<path fill="#004813" clip-rule="evenodd" d="m281.92 119.4c0.196 1.29-0.585 1.603-0.821 2.461-1.253 0.297-1.495-0.419-2.461-0.41-0.4-2.09 1.75-3.18 3.28-2.05z" fill-rule="evenodd"/>
<path fill="#004813" clip-rule="evenodd" d="m277.82 120.22c-0.187 1.729-1.941 1.889-2.463 3.283-2.81-1.19-0.24-5.35 2.46-3.28z" fill-rule="evenodd"/>
<path fill="#004813" clip-rule="evenodd" d="m284.79 119.81c0.28 2.058-0.987 2.569-2.461 2.872-0.79-1.19 0.06-3.58 2.46-2.87z" fill-rule="evenodd"/>
<path fill="#004813" clip-rule="evenodd" d="m286.02 120.63c1.42-0.325 1.732 0.456 2.462 0.821 0.093 1.459-0.276 2.458-1.23 2.872-1.83 0.25-2.04-2.58-1.23-3.69z" fill-rule="evenodd"/>
<path fill="#004813" clip-rule="evenodd" d="m41.481 121.45h1.642c0.13 0.963 0.648 1.54 0.411 2.872-1.202 0.369-1.261 0.369-2.462 0-0.239-1.33 0.279-1.91 0.409-2.87z" fill-rule="evenodd"/>
<path fill="#004813" clip-rule="evenodd" d="m348.39 121.86c1.682-0.479 1.647 2.853 0.409 2.873-1.82-0.16-1.03-2.03-0.41-2.87z" fill-rule="evenodd"/>
<path fill="#004813" clip-rule="evenodd" d="m48.046 123.5c2.7-0.287 2.532 3.617-0.411 2.872 0.005-1.09-0.154-2.34 0.411-2.87z" fill-rule="evenodd"/>
<path fill="#004813" clip-rule="evenodd" d="m292.18 123.91c1.044 0.05 1.591 0.597 1.641 1.641-0.055 1.314-0.93 1.806-2.461 1.642-0.51-1.73-0.03-2.08 0.82-3.28z" fill-rule="evenodd"/>
<path fill="#004813" clip-rule="evenodd" d="m216.68 124.73c0.857 1.062 0.459 3.497-1.23 3.282-0.011-0.398-0.502-0.318-0.821-0.41-0.18-1.82 0.23-3.05 2.05-2.87z" fill-rule="evenodd"/>
<path fill="#004813" clip-rule="evenodd" d="m44.764 126.37c0.319 1.96-0.857 2.426-2.462 2.462-1.459-1.59 0.871-3.91 2.462-2.46z" fill-rule="evenodd"/>
<path fill="#004813" clip-rule="evenodd" d="m349.21 127.6c0.066 1.16-1.231 0.956-1.23 2.051-2.55-0.61-0.07-4.51 1.23-2.05z" fill-rule="evenodd"/>
<path fill="#004813" clip-rule="evenodd" d="m297.51 127.6c-0.003 1.089 0.155 2.343-0.409 2.872-1.249-0.255-2.099-0.911-2.052-2.462 0.48-0.47 1.45-0.46 2.46-0.41z" fill-rule="evenodd"/>
<path fill="#004813" clip-rule="evenodd" d="m51.739 128.84c0.22 1.452-0.348 2.114-1.231 2.462-3.287-0.28-0.777-5.09 1.231-2.46z" fill-rule="evenodd"/>
<path fill="#004813" clip-rule="evenodd" d="m44.354 130.06h1.641c0.585 0.548 0.585 2.325 0 2.873h-1.641c-0.815-0.77-0.199-1.93 0-2.87z" fill-rule="evenodd"/>
<path fill="#004813" clip-rule="evenodd" d="m350.44 132.94c-0.782 0.176-1.031 0.884-2.052 0.82-2.89-2.2 2.53-5.16 2.05-0.82z" fill-rule="evenodd"/>
<path fill="#004813" clip-rule="evenodd" d="m298.33 131.71c1.12-0.299 0.825 0.815 1.642 0.821 0.17 4.94-4.85 1.45-1.64-0.82z" fill-rule="evenodd"/>
<path fill="#004813" clip-rule="evenodd" d="m52.149 133.35c2.028-0.653 2.568 1.415 1.642 2.462h-1.642c-0.46-1.29-0.037-0.93 0-2.46z" fill-rule="evenodd"/>
<path fill="#004813" clip-rule="evenodd" d="m216.68 134.58c-0.344 1.16-0.477 2.533-0.82 3.693-3.62 0.59-2.95-5 0.82-3.69z" fill-rule="evenodd"/>
<path fill="#004813" clip-rule="evenodd" d="m350.44 134.58c2.055-0.245 2.993 2.241 2.051 3.693-2.78 0.27-3.24-2.17-2.05-3.69z" fill-rule="evenodd"/>
<path fill="#004813" clip-rule="evenodd" d="m48.046 134.99c0.607 0.213 1.034 0.606 1.641 0.82 0.046 1.55-0.802 2.206-2.051 2.462-1.242-0.89-0.767-2.66 0.41-3.28z" fill-rule="evenodd"/>
<path fill="#004813" clip-rule="evenodd" d="m384.08 135.81c-0.413 3.142-3.899 7.902-6.975 4.514 1.369-2.187 4.246-2.865 5.744-4.924 0.68-0.12 0.72 0.39 1.24 0.41z" fill-rule="evenodd"/>
<path fill="#004813" clip-rule="evenodd" d="m56.252 135.81h1.641c0.084 1.179-0.104 2.084-0.821 2.462-1.482 0.39-0.572-1.61-0.82-2.46z" fill-rule="evenodd"/>
<path fill="#004813" clip-rule="evenodd" d="m60.766 136.63c1.883 0.22 1.544 1.748 1.231 3.282h-1.642c-0.859-0.9-0.321-2.73 0.411-3.28z" fill-rule="evenodd"/>
<path fill="#004813" clip-rule="evenodd" d="m51.329 138.27c1.253-0.297 1.496 0.419 2.462 0.41v2.051c-0.485 0.473-1.45 0.464-2.462 0.411-0.586-0.54-0.586-2.32 0-2.87z" fill-rule="evenodd"/>
<path fill="#004813" clip-rule="evenodd" d="m68.972 141.14c-1.329 0.778-2.797-0.414-4.513 0.41-2.314-4.21 4.507-3.68 4.513-0.41z" fill-rule="evenodd"/>
<path fill="#004813" clip-rule="evenodd" d="m71.434 138.27c2.105-0.174 1.287 3.262-0.411 2.872-0.543-1.22-0.421-2.08 0.411-2.87z" fill-rule="evenodd"/>
<path fill="#004813" clip-rule="evenodd" d="m302.02 138.27h1.23c0.171 1.401-0.123 2.337-1.641 2.051-0.13-0.95 0.07-1.57 0.41-2.05z" fill-rule="evenodd"/>
<path fill="#004813" clip-rule="evenodd" d="m356.18 140.32c-0.274 1.367-1.057 2.228-2.872 2.051-2.36-2.16 1.47-4.73 2.87-2.05z" fill-rule="evenodd"/>
<path fill="#004813" clip-rule="evenodd" d="m223.25 140.32c2.105-0.173 1.287 3.262-0.41 2.872-0.59-1.25-0.19-1.84 0.41-2.87z" fill-rule="evenodd"/>
<path fill="#004813" clip-rule="evenodd" d="m57.073 140.73c1.482 0.592 2.007 2.01 0.821 3.283-0.736 0.052-0.865-0.502-1.641-0.411-0.267-1.49 0.276-2.18 0.82-2.87z" fill-rule="evenodd"/>
<path fill="#004813" clip-rule="evenodd" d="m360.7 144.02c-0.681 0.687-2.409 0.327-3.693 0.41-1.95-2.71 4.41-4.58 3.69-0.41z" fill-rule="evenodd"/>
<path fill="#004813" clip-rule="evenodd" d="m216.27 141.96c0.33 0.217 0.666 0.428 1.23 0.41 0.126 1.766 0.03 3.312-1.641 3.283-1.43-1.03-0.61-2.87 0.41-3.69z" fill-rule="evenodd"/>
<path fill="#004813" clip-rule="evenodd" d="m304.08 142.38c0.941 1.147 0.227 3.264-1.642 2.872-0.83-1.03-0.2-3.23 1.64-2.87z" fill-rule="evenodd"/>
<path fill="#004813" clip-rule="evenodd" d="m61.997 142.79c2.025-0.234 2.343 1.484 1.641 2.872-2.025 0.23-2.343-1.49-1.641-2.87z" fill-rule="evenodd"/>
<path fill="#004813" clip-rule="evenodd" d="m75.536 143.2c2.437-0.549 1.977 2.936-0.41 2.051-0.13-0.95 0.066-1.58 0.41-2.05z" fill-rule="evenodd"/>
<path fill="#004813" clip-rule="evenodd" d="m364.8 144.43c1.519-0.123 1.477-1.806 3.692-1.23-0.152 1.897-1.282 2.82-2.461 3.692-1.083 0.125-1.059-0.856-1.231-1.641-1.305 0.063-1.805 0.931-3.282 0.821-2.08-2.03 2.91-4.58 3.28-1.64z" fill-rule="evenodd"/>
<path fill="#004813" clip-rule="evenodd" d="m226.94 145.66c-0.231 0.999-0.352 2.11-1.642 2.051-1.18-1.09 0.51-3.28 1.64-2.05z" fill-rule="evenodd"/>
<path fill="#004813" clip-rule="evenodd" d="m230.63 147.3c-0.037 1.604-0.502 2.78-2.463 2.461-0.49-2.08 1.03-3.6 2.46-2.46z" fill-rule="evenodd"/>
<path fill="#004813" clip-rule="evenodd" d="m219.96 147.3c0.011 0.398 0.502 0.318 0.819 0.41 0.17 1.674-0.419 2.588-2.051 2.462-0.8-0.92-0.22-2.95 1.23-2.87z" fill-rule="evenodd"/>
<path fill="#004813" clip-rule="evenodd" d="m250.74 148.53c-1.724 2.526-8.118 6.57-10.257 2.462 0.694-2.703 2.438-2.309 5.334-2.462 1.78-0.09 4.36-1.57 4.93 0z" fill-rule="evenodd"/>
<path fill="#004813" clip-rule="evenodd" d="m236.38 148.12c0.489 2.445-1.68 2.864-3.282 2.051 0.02-1.75 1.19-2.36 3.28-2.05z" fill-rule="evenodd"/>
<path fill="#004813" clip-rule="evenodd" d="m304.48 148.94c0.17 1.674-0.42 2.589-2.052 2.462-0.17-1.67 0.42-2.59 2.05-2.46z" fill-rule="evenodd"/>
<path fill="#004813" clip-rule="evenodd" d="m224.07 150.99c1.631-0.127 2.22 0.788 2.052 2.462-0.485 0.472-1.451 0.464-2.463 0.41-0.59-1.26-0.19-1.84 0.41-2.87z" fill-rule="evenodd"/>
<path fill="#004813" clip-rule="evenodd" d="m229.4 153.04c1.254-0.296 1.495 0.419 2.462 0.411 0.318 1.959-0.857 2.425-2.462 2.462-0.58-0.54-0.58-2.32 0-2.87z" fill-rule="evenodd"/>
<path fill="#004813" clip-rule="evenodd" d="m246.63 153.86c-0.737 1.997-2.593 2.878-4.923 3.282-1.6-2.6 3.14-4.04 4.92-3.28z" fill-rule="evenodd"/>
<path fill="#004813" clip-rule="evenodd" d="m237.2 154.27c0.293 1.875-1.419 3.205-2.872 2.051 0.1-1.53 0.88-2.39 2.87-2.05z" fill-rule="evenodd"/>
<path fill="#004813" clip-rule="evenodd" d="m259.76 161.66c0.128 1.63-0.787 2.22-2.461 2.051-2.09-1.91 1.18-4.57 2.46-2.05z" fill-rule="evenodd"/>
<path fill="#004813" clip-rule="evenodd" d="m253.2 162.07c1.515-0.14 1.49 2.492 0.82 3.282-1.309 0.353-1.27-0.645-2.051-0.819-0.02-1.25 0.86-1.59 1.23-2.46z" fill-rule="evenodd"/>
<path fill="#004813" clip-rule="evenodd" d="m256.07 166.58c2.039 0.528 1.061 3.279-0.82 3.281-0.97-1.08-0.25-2.97 0.82-3.28z" fill-rule="evenodd"/>
<path fill="#004813" clip-rule="evenodd" d="m283.15 166.99c0.58 5.146-6.396 9.499-7.797 3.283 1.52-3.07 4.92-1.71 7.8-3.28z" fill-rule="evenodd"/>
<path fill="#004813" clip-rule="evenodd" d="m297.1 167.4c-0.487 1.428-0.895 2.934-2.463 3.282-0.86-1.36 0.29-3.64 2.46-3.28z" fill-rule="evenodd"/>
<path fill="#004813" clip-rule="evenodd" d="m260.17 169.04c1.404-0.175 1.233 1.229 2.052 1.641-0.357 1.01-0.956 1.779-2.463 1.641-0.94-0.98-0.07-2.48 0.41-3.28z" fill-rule="evenodd"/>
<path fill="#004813" clip-rule="evenodd" d="m292.59 170.69c-0.392 1.112-0.18 2.829-2.052 2.462-0.17-1.67 0.42-2.59 2.05-2.46z" fill-rule="evenodd"/>
<path fill="#004813" clip-rule="evenodd" d="m264.69 171.1c1.158 0.21 1.743 0.993 2.873 1.231v2.052c-2.66 1.36-5.4-1.55-2.87-3.28z" fill-rule="evenodd"/>
<path fill="#004813" clip-rule="evenodd" d="m272.48 173.56c1.026-0.07 1.284 0.63 1.641 1.23 0.059 1.291-1.052 1.409-2.052 1.642-0.89-0.88-0.21-2.29 0.41-2.87z" fill-rule="evenodd"/>
<path fill="#004813" clip-rule="evenodd" d="m286.43 173.56c-0.029 1.202-0.149 2.313-1.642 2.052-0.11-1.34 0.49-1.97 1.64-2.05z" fill-rule="evenodd"/>
<path fill="#004813" clip-rule="evenodd" d="m279.05 174.38h2.051c0.394 2.036-1.23 2.051-2.461 2.462-0.06-1.01-0.07-1.98 0.41-2.46z" fill-rule="evenodd"/>
<path fill="#004813" clip-rule="evenodd" d="m396.8 180.94c2.047 1.245-1.029 4.056-2.052 4.925-0.95-1.65 2.42-2.49 2.05-4.92z" fill-rule="evenodd"/>
<path fill="#004813" clip-rule="evenodd" d="m185.09 196.12c4.499 5.073 9.671 9.476 12.309 16.412 0.488 1.862-1.525 2.457-0.41 3.693 1.962 0.2 3.226-1.698 6.154-1.232 1.08 2.432 0.26 6.19-1.23 7.386-0.069 1.026 0.63 1.285 1.23 1.642 2.19-0.135 2.351-2.301 4.514-2.461 1.571 1.438 3.997 2.021 6.154 2.871-1.566 2.127-1.044 6.343-3.282 7.796-1.297-0.077-0.951-3.029-0.411-3.691-2.992 1.383-2.954 5.797-7.796 5.333-0.066-4.753-4.536-7.182-4.103-11.078-5.022-0.996-5.514-6.521-8.616-9.437-4.293-0.632-7.299-2.549-11.078-3.693-1.916 1.125-3.866 2.074-6.155 0.82-0.175-1.68 0.867-2.142 1.642-2.872-0.065-2.261-1.378-3.271-2.872-4.103-2.877 0.543-4.52 2.318-6.976 3.282-2.123 1.609-3.1 5.555-4.924 8.616-0.662 1.112-2.013 3.357-2.462 5.333-0.752 3.314-0.576 7.716-1.23 11.489-0.596 3.436-1.978 5.184-0.41 8.616 1.217 2.667 4.646 6.552 6.565 6.976 1.798 0.398 3.982-1.078 6.154-0.41-1.756 6.674-11.537 2.708-14.771-0.41-0.683-0.659-1.663-2.636-2.872-4.104-2.996-3.639-6.476-7.65-5.744-15.592 0.194-2.105 1.055-4.631 1.641-6.975 0.579-2.312 0.832-4.854 1.642-6.565 2.08-4.396 6.575-6.613 8.616-9.847-3.731-0.4-11.136 0.668-9.437 5.744-3.283 2.461-5.402 6.086-7.796 9.438-1.371 0.27-2.006 1.275-3.283 1.64-4.691 4.229-11.674 11.499-13.95 20.517-0.351 1.389-2.021 2.725-1.231 5.744 0.425 1.622 1.66 2.309 3.283 3.282-2.869 5.412-9.404-2.726-10.668-5.335-5.039-10.4-0.414-23.383 6.155-29.952 8.41-8.409 14.729-15.092 26.259-15.591 1.197-0.103 1.416 0.772 2.052 1.231 1.403-0.239 1.91-1.372 3.692-1.231 0.306 1.264-1.126 0.79-0.82 2.052 3.707-0.431 11.175-0.561 13.54-3.692 5.849-0.104 10.037 1.451 13.13 4.103-0.292 1.992-0.602 3.457 0.41 4.924 3.019-1.408 3.676 1.344 6.565 1.23 1.253-0.113 0.901-1.834 2.051-2.052 2.475-0.773 2.146 0.71 4.514 0.821-0.239-2.656-3.566-1.755-5.335-2.461-2.116-0.847-3.644-3.001-5.334-2.463-0.162-1.752-1.815-2.015-2.051-3.693 1.26-4.28 4.22-0.24 6.99-2.07zm-50.47 18.47c-3.575 2.857-7.895 4.492-10.257 7.385-1.886 2.309-1.388 6.478-2.873 9.848 2.878-2.455 4.616-6.052 6.975-9.026 4.613-4.825 12.031-6.843 14.361-13.951 0.431-0.021 0.322-0.525-0.41-0.409-2.47 1.5-4.97 3.89-7.79 6.15z" fill-rule="evenodd"/>
<path fill="#004813" clip-rule="evenodd" d="m209.71 247.82c-0.661 0.98-2.795 0.487-2.872 2.052-2.223-1.011-3.371-1.472-5.745-1.642-0.299-1.119 0.816-0.826 0.821-1.642-1.45-3.248 0.028-8.776 2.051-11.077 0.968 0.009 1.209-0.706 2.463-0.411 1.105-1.684 3.103-3.502 4.924-1.23 0.493 4.201 0.973 8.694-1.642 11.077v2.87z" fill-rule="evenodd"/>
<path fill="#004813" clip-rule="evenodd" d="m184.68 310.19c0.306-3.523 2.781-4.878 3.692-7.794-1.405-2.966-0.985-5.671-1.641-8.617-2.11-9.478-10.124-16.238-19.285-18.054-2.64-0.522-4.336-0.231-7.385 0.41-3.542 0.745-5.836 0.868-6.155 5.334 4.855 4.139 10.965-3.686 15.592-2.462-0.572 2.664-5.204 3.563-8.206 4.925-1.276 0.577-2.976 1.895-4.924 2.05-0.843 0.069-1.643-0.546-2.462-0.409-5.415 0.904-11.041 4.214-16.822 3.281 1.856-3.887 8.638-2.85 12.719-4.513-1.138-7.697 3.112-14.733 10.668-16.001 1.732-0.291 4.203 0.348 6.564 0.41 5.55 0.146 8.98-0.397 12.31 2.872 5.436-8.379 15.45-12.177 20.105-21.336 2.943-1.431 5.595 0.174 7.385 2.052 1.588 0.066 3.327-1.846 4.103-1.23-0.027 1.833-0.938 0.521-1.641 1.23-0.45 1.842-0.659 4.223-1.642 5.744-0.794 1.228-2.965 1.925-4.103 3.282-1.059 1.264-1.234 2.893-2.052 3.692-2.286 2.237-5.745 3.278-6.976 6.565-2.181-0.391-3.698 2.026-4.923 1.23-1.875 0.014-0.021-1.439-0.41-2.462-2.98 0.713-4.576 2.811-6.565 4.514 1.566 3.208 3.339-0.367 6.155-0.411 0.047 2.235-1.437 2.94-2.462 4.104 4.211 2.748 12.578 4.786 12.31 11.079-0.086 2.017-1.206 2.947-2.462 4.513 2.22 4.191-0.724 9.062-2.461 11.898-4.08 0.08-4.82 5.53-9.03 4.11z" fill-rule="evenodd"/>
<path fill="#004813" clip-rule="evenodd" d="m177.7 283.52c0.027 1.76-1.964 2.04-3.282 2.872-2.329 1.468-5.202 3.306-8.616 4.103-0.809 0.189-2.027-0.266-2.873 0-4.25 1.334-8.099 4.588-12.719 4.514-1.519 0.534-3.345 2.483-5.334 1.231 1.12-3.811 5.867-3.548 9.437-4.515 3.225-0.871 5.933-2.485 8.206-3.691 6.098-0.194 9.47-3.113 13.951-4.925 0.65-0.11 0.7 0.4 1.22 0.42z" fill-rule="evenodd"/>
<path fill="#004813" clip-rule="evenodd" d="m216.68 58.673c2.288-1.442 1.802-3.933 2.052-8.206 0.108-1.831 0.882-3.783 0.82-4.924-0.133-2.491-1.594-5.725-2.461-8.616-1.481-4.931-3.069-10.49-3.283-17.232-0.159-4.999 0.356-9.988-1.641-14.771 4.214-3.393 6.056 1.364 6.564 5.334 0.65 5.073-0.836 12.156 0.82 15.591 5.022-1.478 5.898-7.644 9.026-11.898 3.457-4.699 9.084-5.878 13.54-9.437 3.225 0.109 6.311-0.803 9.438-0.41 2.254 0.283 4.969 1.391 7.386 2.462 5.475 2.427 9.48 4.305 13.129 8.206-0.035 4.174 3.84 9.792 3.282 14.36-0.265 2.174-1.806 5.863-5.333 5.745-0.799-2.019 0.763-4.151 0.409-6.975-1.464-1.606-2.966-1.32-4.513-2.462-3.229-2.385-4.111-6.245-9.437-6.976-9.537-1.307-17.601 8.424-28.312 4.513-3.189 1.734-5.297 4.55-8.205 6.565 0.851 5.874 4.742 10.937 4.513 17.643-0.288 8.399-2.549 17.402-6.154 23.798 0.585 4.708-0.472 8.46-2.052 11.489-0.905 1.734-0.909 4.436-4.103 3.282-0.494-1.42-0.895-2.936-0.82-4.924-3.52-4.001-5.57-10.479-11.489-10.258-2.096 0.079-3.253 1.922-5.334 2.872-1.405 0.643-3.507 1.36-5.333 2.052-1.702 0.645-4.082 1.536-5.334 1.642-0.87 0.073-1.495-0.725-2.462-0.821-3.071-0.305-6.625 0.753-9.027 0.41-3.931-0.562-7.425-3.229-11.898-4.513-1.935 9.149 2.543 20.175 7.385 26.259 0.449 0.564 0.455 1.612 0.821 2.052 0.971 1.167 2.787 2.383 4.103 3.693 2.155 2.143 3.645 4.471 6.155 5.744 1.334 0.677 4.588 0.539 4.924 2.052-0.824 2.044-3.223 0.882-4.924 1.23-1.155 0.236-2.645 1.244-3.693 1.23-4.266-0.054-7.697-4.891-12.309-3.282-1.611-1.246-1.832-1.888-4.103-0.82-7.614-5.866-18.102-13.974-14.361-30.362 1.372-6.012 5.133-9.91 8.206-13.951-0.768-3.198-3.596-4.336-4.513-7.385-6.216-0.608-8.088 3.126-11.899 4.924-3.662 9.877-13.176 13.903-18.874 21.746 0.998 10.217 5.08 17.349 13.54 20.104 3.758 3.491 8.665 5.833 11.078 10.668 7.441 2.817 12.8 7.715 18.874 11.898 1.521 0.291 1.761-0.701 3.282-0.41 0.443 1.334 0.547 3.008 2.052 3.282 0.305 1.673-1.323 1.413-0.821 3.283 1.928 4.09 3.002 9.034 6.564 11.489 0.772 2.051-0.064 3.366 0 5.744 2.68-1.891 1.512-4.613 0.411-6.975 3.249-5.778 4.21-13.843 10.257-16.822 0.044-1.685-1.64-1.643-1.23-3.693 1.265-1.913 3.579-0.846 5.334-1.231 3.97-0.872 6.966-3.262 9.848-4.923 0.538-1.792-0.912-3.708 0-4.513 0.012-1.492 1.206-1.803 2.872-1.641 2.129-4.709 5.926-7.75 6.975-13.54-0.865-0.436-4.49-0.128-4.514 1.641-6.056-1.185-10.661 6.448-9.438 13.129 0.397 2.166 1.816 3.271 2.462 4.924-5.057 2.956-8.135-6.141-8.617-11.079-0.386-3.964 0.99-8.439 2.052-11.078 1.315-1.318 3.406-1.821 5.334-3.693 1.412-1.371 2.115-3.96 3.692-4.924 4.391-2.683 10.689-1.589 15.182 0.821 5.286-4.636 13.362 2.392 9.026 8.616 0.326 2.41 1.912 3.559 2.462 5.744 2.889-0.94 7.05-0.608 10.257-1.23-0.92-2.751-2.363-2.564-3.281-4.104-3.405-5.708-3.583-16.367-2.463-23.797 1.35-8.949 5.101-15.016 9.849-19.694 2.557-2.52 6.175-6.517 6.975-11.078 0.432-2.467-1.083-4.169 0.41-5.334 3.368-0.085 2.803 3.761 5.334 4.513 0.584 4.305 3.377 8.521 3.692 13.54 0.324 5.169-1.787 9.77-1.641 14.361-1.225 2.521-2.601 4.211-4.514 6.564-0.651 0.801-1.36 2.07-2.052 2.872-2.054 2.383-5.374 3.767-6.975 6.155-2.016 3.005-3.32 7.351-1.642 12.309 1.733-1.822 3.754-3.358 4.514-6.155 2.849-0.417 7.055-5.458 9.026-1.641 0.35 2.264-3.143 0.686-3.693 2.051 2.113 1.891 5.397 2.663 8.207 0.821 4.457-18.655 27.956-18.27 38.158-31.183 1.249-2.713 0.324-8.968 0.82-12.719 4.048 1.188 2.393 5.912 2.872 9.437 0.719 5.294 3.373 10.404 2.872 15.181-0.214 2.037-1.919 3.601-2.872 6.155-0.918 2.458-0.738 5.396-1.642 6.975-2.154 3.765-7.2 5.133-9.026 8.206h-3.283c-2.03 2.619-6.912 2.388-9.436 4.513-6.032 0.838-12.442-1.406-16.412 0-0.699-0.806-0.959-2.05-2.052-2.462-4.484-0.166-8.415-0.885-12.72-1.23-0.327 0.767-0.685 1.502-0.82 2.461 15.354-0.036 22.69 7.945 27.899 18.053 0.705-0.526 0.825-1.638 1.642-2.051 1.588-0.357 1.46 1.002 2.463 1.23 7.707-1.816 14.684 0.92 21.336 2.462 1.588 0.085 1.604-1.405 2.872-1.641 8.598-0.291 12.854-4.924 18.464-8.206 1.229-6.565 7.185-8.405 9.847-13.54-2.19-3.287-0.12-6.499 0.819-9.026 0.672-1.803 0.5-3.703 1.232-5.334 0.631-1.406 2.153-2.248 2.872-3.693 0.771-1.552 0.622-3.804 1.23-5.744 0.317-1.013 1.109-1.622 1.23-2.462 0.749-5.226 0.323-13.797-1.641-17.643-3.278-1.646-3.875-5.972-8.616-6.154-0.881-1.034-0.955-2.876-2.052-3.693-3.559-0.511-6.603-1.868-11.488-2.462-1.604-0.195-2.832-1.138-4.103-1.231-2.941-0.213-5.471 0.447-7.387 1.642-1.256 0.783-1.803 2.458-3.281 3.692-0.489 0.408-1.598 0.242-2.463 0.821-0.497 0.333-0.782 1.348-1.23 1.641-1.175 0.77-2.541 1.095-3.693 2.051-1.29 1.073-1.874 2.768-3.281 3.693-2.279 1.498-8.296 2.906-9.027 5.334-1.416 4.703 3.963 6.165 3.283 9.027-5.013-0.678-6.044-2.684-6.565-7.795-0.234-2.291-1.009-4.554-0.821-6.155 0.687-5.821 8.043-11.572 10.259-16.002 2.477-1.507 4.396-2.707 8.205-3.693 1.087-0.281 2.466-1.175 3.282-1.23 4.722-0.321 8.905 2.326 13.13 3.282-2.242-2.368-7.2-7.431-8.205-13.54-0.379-2.297-0.486-5.812-0.411-8.206 0.081-2.577 0.148-6.582 3.283-6.975 1.807 1.824 0.481 3.386 0.41 5.334-0.267 7.244 0.633 13.834 4.923 18.464 10.8 11.655 35.84 11.388 44.724-2.052 0.327-3.458 2.051-7.329 2.461-11.488 0.213-2.155-0.971-7.822 0.82-8.206 2.176-0.467 2.671 4.223 2.463 7.385-0.398 6.059-2.827 9.486-3.693 14.771-1.658-0.064-1.292 1.648-2.051 2.461-4.437 4.753-10.84 6.815-17.233 8.617 0 5.472 2.635 8.308 4.514 11.899 3.648-3.298 4.805-10.394 9.026-13.951 1.26-1.061 3.412-2.036 5.335-3.282 7.141-4.631 14.864-10.458 25.848-7.386 1.19 0.333 2.052 1.193 3.283 1.642 1.325 0.482 3.062 0.332 4.103 0.82 2.984 1.402 14.89 10.163 6.564 13.951-2.012-2.638-2.725-6.576-5.743-8.206-2.3 2.046-5.325 0.926-8.207 1.231-2.68 0.284-5.773 1.083-8.616 1.641-2.303 0.452-4.395 1.645-6.563 2.051-6.313 1.182-13.617-0.625-17.233 4.513 3.756-0.364 6.76-2.441 13.129-1.641 5.586 0.702 10.196 5.197 14.361 7.796 1.364 0.851 2.775 1.161 3.281 1.641 2.304 2.184 2.644 5.738 4.514 7.795-2.794 3.747 2.516 9.946-2.461 12.31-0.75 5.289-2.314 11.881-6.976 11.898-1.176-1.475 0.653-2.688 1.231-3.693-0.545-2.132 0.56-5.663-0.82-7.796-0.396-1.246-2.391-0.893-3.283-1.641-2.279-2.284-3.825-4.634-5.743-7.796-1.417-2.333-1.962-4.43-3.283-7.796-0.94-2.394-3.079-4.232-2.873-6.975-6.152-1.342-12.515-0.837-15.18 3.282-0.348 1.714 0.797 1.938 0.819 3.282-4.975 8.703-4.931 22.422-11.078 29.952 0.487 1.537-0.731 2.772-0.82 4.103-0.124 1.875 0.912 3.301 0.82 4.923-0.101 1.803-0.812 4.639-1.642 6.155-1.694 3.099-6.052 4.797-8.615 7.796-1.146 1.339-1.012 3.058-2.872 4.104 3.604-1.049 7.937-3.549 11.898-2.873 2.061-2.453 5.876-3.15 8.617-4.923 1.448-6.169 4.404-13.792 7.385-19.695 1.659-3.288 4.278-4.615 3.283-9.847-0.488-2.558-4.814-4.327-1.643-7.385 5.901 2.168 7.503 8.635 11.899 12.309 0.763 5.189 1.482 11.051-0.41 14.771-1.438 2.827-6.505 4.989-8.616 7.795 4.42-1.536 12.707-6.418 18.873-4.923 1.901-1.244 3.548-2.744 6.155-3.283 1.269-3.646 4.45-4.492 7.385-6.975 0.779-0.658 1.17-1.921 2.052-2.872 0.962-1.039 1.954-1.131 2.462-2.051 0.53-0.96 1.078-3.239 1.642-4.923 0.495-1.481 1.466-3.744 1.641-4.924 0.416-2.813-1.729-7.165 1.23-8.616 4.457 3.729 3.724 15.18 2.463 22.156 3.2 7.341-3.924 13.435-10.258 15.181 1.326 2.419 4.307 3.177 6.154 5.334 3.349 3.906 5.396 11.165 5.334 19.284-0.027 3.626-0.025 5.71-1.23 9.438-0.775 2.396-1.402 3.893-2.463 5.744-1.193 2.084-1.711 2.965-3.691 4.924-2.316 2.289-4.894 3.647-7.796 5.744 0.757 1.648 1.61 1.609 3.692 1.231 1.903 1.448 6.527 2.034 7.795 5.334 0.435 1.13 0.512 2.952 1.231 4.513 0.4 0.869 1.362 1.654 1.641 2.463 1.591 4.614 0.609 7.997 0.411 11.898-0.047 0.924 0.555 2.244 0.41 2.872-0.539 2.338-2.443 3.04-3.693 4.925-0.886 1.336-0.25 3.506-2.052 3.691-6.834-2.518-7.301 6.383-14.359 6.155 0.309-2.153 0.464-4.46 2.872-4.514 1.821-5.133 3.641-13.369 2.461-20.515-0.387-2.352-2.37-5.737 0-7.796-1.204-3.173-3.711-5.042-4.514-8.617-13.765 1.672-24.611-2.972-31.183-9.847-1.22 0.558-0.72 2.834-0.819 4.513-1.003 2.28-2.893 3.674-5.335 4.513-0.801-0.566-2.161-0.575-2.461-1.641-3.595 0.919-6.726 2.302-10.258 3.283-2.202 0.26-1.853 3.07-4.924 2.461-1.613-2.338 0.333-5.257 2.052-6.975 1.085-1.085 2.674-1.223 3.692-2.051 6.923-5.626 5.989-24.838-2.052-29.132-1.661-0.116-2.852-0.704-4.514-0.821-0.612-1.249 0.136-1.595-0.409-2.462-2.199 2.042-5.382 3.1-7.796 4.924-3.958-1.941-9.607 0.518-12.31 2.461 5.706 7.918 11.81 16.959 10.668 29.952-0.255 2.904-1.813 5.785-1.642 9.438 2.461-0.155 5.376-2.21 9.027-2.463 4.892-0.337 9.881 1.489 13.54 2.872 0.803 3.849 6.466 2.834 7.385 6.565-1.899 2.085-4.457 0.17-6.975-0.411-2.506 1.314-4.8 1.519-6.976 2.872-2.018 1.258-2.76 3.316-4.514 4.515-2.372 1.62-5.829 1.416-6.975 4.514-5.114 0.886-11.327 5.432-16.822 2.051-3.104 1.545-4.561 4.739-7.796 6.154 0.447 0.921 2.014 0.721 2.462 1.642 1.84 0.198 1.832-1.451 3.283-1.642 2.499-0.084 4.479 0.011 6.563-1.23 5.897-0.625 11.027 1.539 13.54 4.924 1.939 2.611 2.786 8.957 5.335 13.949 1.529 2.998 3.945 4.26 4.103 8.617 0.299 8.289-4.367 16.324-10.258 19.695-0.51 2.361-0.543 5.2-4.104 4.513 0.122-5.533 1.408-9.091-1.23-13.951-0.792-1.457-2.684-2.749-3.281-4.513-0.842-2.481 0.203-5.341-0.411-7.385-0.617-2.053-4.398-4.928-6.565-8.207-0.607-0.922-0.713-2.12-1.23-2.872-1.872-2.718-4.795-4.014-4.103-9.438-4.422-0.364-8.148-1.426-13.131-1.23 0.174 1.886 2.97 4.687 4.924 6.155 5.142-2.659 9.927 0.923 11.079 5.334 0.442 1.695-0.15 3.871 0.409 5.744 0.449 1.499 1.905 2.646 2.463 4.103 0.808 2.111 1.141 4.907 0.82 7.796-0.236 2.128-1.78 5.549-1.642 9.026 0.13 3.212 1.564 5.98 0.821 9.027-1.366 2.19-2.881 4.23-3.693 6.975-7.749 1.415-9.534 10.979-18.873 9.437-0.909-2.516 4.5-1.988 5.744-3.691 6.769-15.077-5.102-34.831-0.82-51.289-1.035-2.794-4.558-3.102-4.924-6.564-4.731-3.541-13.072-4.017-18.464-5.743-0.604 0.596-0.603 2.685 0 3.28 2.489 2.228 8.548 1.573 9.437 6.155 0.422 2.176-1.329 5.1-1.23 7.387 0.087 2.013 1.566 4.112 1.642 6.153 0.077 2.131-1.055 5.485-1.642 8.207-0.577 2.676-1.063 5.922-2.052 7.385-1.714 2.539-6.032 4.254-7.796 6.975-3.634 1.017-7.286 2.014-9.847 4.104-1.453 0.222-1.01-1.455-2.463-1.231-2.896 1.615-3.725 5.301-7.796 5.744 0.09-6.358 7.293-8.993 9.028-15.592 0.62-2.36 1.256-6.515 1.23-9.026-0.021-2.029-1.031-3.765-1.23-5.744-1.126-11.17 4.629-15.376 7.795-22.566-2.163-1.916-3.542-3.774-7.795-3.283-0.633 0.074-1.434 0.784-2.053 0.82-2.119 0.127-4.258-0.623-5.743-0.409-3.605 0.517-7.817 2.877-10.668 4.922-3.547 2.545-5.731 6.476-7.796 9.027v2.462c-3.514 4.967-4.499 12.461-6.977 18.463-0.764 0.057-1.37 0.271-1.64 0.822-1.779-0.684-3.616-1.31-4.514-2.872 1.517-8.896 4.186-16.666 9.026-22.567 0.636-0.774 1.629-1.099 2.462-2.052 1.775-2.03 2.905-4.659 4.924-6.563 3.049-2.88 7.272-4 10.258-6.977 1.69-0.323 0.771 1.966 2.461 1.642 1.177-0.465 2.151-1.131 2.872-2.051 6.087-0.343 8.951-3.906 12.72-6.565-1.987-4.03-6.986-5.049-6.565-11.489h-10.668c0.116 1.39 0.653 2.357 0.411 4.104-1.544 6.798-6.369 10.314-10.668 14.359-2.462-0.273-3.413 0.964-4.923 1.642-6.646 2.032-16.498 1.666-23.799-1.231-3.343-1.327-7.612-3.968-5.744-7.385 2.678-0.533 2.847 2.467 4.923 3.282 4.536 1.779 12.033-0.429 15.591-2.873 5.289-3.63 7.677-11.795 12.31-14.771-13.364-4.611-21.242-23.637-13.54-38.568-3.765-0.744-8.564-0.66-11.488 1.231-1.29 0.834-1.603 2.606-2.873 3.692-2.648 2.269-8.118 3.103-7.385 7.386-1.549 0.181-1.926-0.809-2.872-1.231-1.266 1.482-1.676 3.595-2.872 5.745-1.348 2.421-3.712 3.877-3.693 7.385 0.003 0.606 0.802 1.183 0.821 2.051 0.014 0.674-0.858 1.471-0.821 1.641 0.209 0.965 1.742 1.378 1.231 2.462-0.597 2.548-3.108 3.182-4.103 5.333-0.214 6.078 0.465 13.048-0.41 18.464 0.778 0.726 2.627 0.383 3.282 1.231 1.308 3.35-0.352 5.988 0 8.617 0.542 4.043 4.929 5.678 4.923 10.257-2.137 1.197-3.119-0.888-5.744-0.41-2.747-5.46-6.506-9.906-8.617-16.002-0.036-1.814 1.714-1.843 2.462-2.872-2.284-4.007-1.244-11.339-2.051-16.822-0.182-1.46-1.663-1.62-2.462-2.463-0.704-2.6-1.255-6.199 0-8.616-2.382-3.089-3.231-7.711-5.744-10.668-1.32-0.458-2.857-0.699-4.104-1.231 0.173-2.973 3.027-3.265 3.693-5.745-3.768 2.749-6.128 0.551-9.847-2.461-1.838-1.489-4.085-2.455-5.744-3.693-1.017-0.759-1.699-2.296-2.872-2.873-1.879-0.923-4.732-0.563-6.975-1.23-2.344-0.698-2.848-2.066-6.565-1.642-3.451 0.394-7.069 3.401-10.258 4.924-1.5 0.27-1.574-0.888-2.872-0.821-4.497 0.564-5.777 4.344-9.847 5.334-0.384 1.531-2.091 1.738-2.051 3.692-1.293 0.46-0.929 0.037-2.462 0-1.146 2.685-3.328 4.331-3.283 8.206-2.391 1.985-4.446 4.306-6.564 6.565 0.799 6.303 5.348 10.903 11.078 13.95 2.234 1.188 5.222 2.85 8.206 3.283 9.16 1.324 16.594-1.312 22.977-4.514 2.501-3.116 1.126-7.037 0-10.668 6.681-1.005 5.839 4.479 4.104 9.438-1.438 4.106-2.05 6.411-4.513 9.436-3.602 4.422-9.657 6.96-15.182 9.027-2.394 0.896-4.959-0.509-8.206-0.821-4.665-0.448-5.75-0.367-9.027-2.872-2.814-2.149-4.725-3.488-6.155-6.564-0.831-1.788-0.739-3.68-1.641-5.333-1.277-2.344-3.073-4.971-4.513-8.207-2.611 2.865 1.533 7.182 0.411 9.847-5.168-0.336-4.472-8.432-3.693-12.309-2.472-0.606-5.72 1.327-8.206 2.052 0.503 3.772-1.449 6.124-1.641 10.257 4.605 2.524 9.424 4.409 12.72 8.207 0.908 1.046 1.163 2.603 2.051 3.691 0.982 1.206 2.732 1.965 3.693 3.283 1.774 2.438 2.612 5.17 4.103 7.796 6.806 5.778 8.981 16.184 17.232 20.516 2.057-0.27 3.091-1.56 5.334-1.642-0.604 1.895-2.643 2.623-4.103 3.283-3.049 1.374-7.155 2.814-11.489 2.05-2.612-0.46-5.986-2.31-9.026-3.691-10.808-4.913-19.2-9.694-22.567-22.978-0.424-1.673-0.884-3.557-1.23-5.334-0.363-1.86-1.019-3.724-1.231-5.334-0.18-1.375 0.312-2.903 0-4.513-0.739-3.805-0.608-6.904 2.462-9.847-1.836-1.838-2.408-3.139-0.41-5.335-3.762 0.252-2.665 3.113-2.872 5.335-1.423 0.328-1.578-0.612-2.873-0.411-4.052 6.701-8.19 14.274-7.795 24.208-0.066 1.159 1.232 0.955 1.23 2.051-0.324 9.625 2.467 16.135 4.104 23.799 0.287 1.79-1.185 1.823-1.231 3.281 0.718 2.758 2.219 5.168 4.514 6.565 1.492 0.908 4.241 0.332 4.924 2.461-5.876 2.439-10.082-3.481-14.361-5.333-1.276-0.871-0.087-1.828-0.821-2.872-2.025 0.212-2.898 1.191-4.924 0.41-2.016-1.662-2.713-5.002-4.513-7.796-0.604-0.938-1.349-1.098-1.641-2.052-0.566-1.842-0.517-5.115-0.82-7.796-0.915-8.053-0.248-16.704 2.461-23.387 1.594-1.141 3.254-2.217 3.693-4.513 4.898-0.983 5.273-6.49 10.668-6.977 1.426-2.676 3.004-5.201 4.513-7.795-9.568 0.035-16.3-3.719-21.746-9.026-1.659-1.617-3.214-2.512-4.513-4.513-2.793-4.301-5.699-13.589-5.334-20.925 0.318-6.391 3.004-11.231 5.334-16.412-4.352-2.079-7.612 3.442-10.257 5.744-2.64 0.369-3.862 2.156-5.334 3.692-4.52 1.362-8.292 3.47-12.719 4.923-1.312 3.107-1.583 6.746 0 9.438 1.261 2.145 2.991 1.744 4.103 3.283 0.289 2.373-4.449 2.841-4.923 0.82-10.286-2.203-13.784-17.532-9.027-27.9 2.79-6.082 9.607-11.385 16.001-12.31 6.076-0.878 11.425-0.112 18.874 0 2.294 2.629 5.045 4.803 6.975 7.796 2.597-1.37 3.533-4.4 6.155-5.745-7.596-1.169-13.961-4.473-19.694-8.206-4.919-3.204-7.016-4.468-10.668-9.847-3.084-4.542-7.201-11.211-6.155-19.695 1.241-10.057 9.293-16.769 10.258-27.9 1.593-0.102 2.1-2.833 3.693-1.642-0.237 10.507-4.712 19.488-1.642 29.542 0.312 1.023 1.25 2.175 1.642 3.283 0.29 0.82 0.129 1.838 0.411 2.462 0.668 1.484 2.2 2.605 2.871 4.103 0.499 1.112 0.351 2.635 0.821 3.692 0.674 1.515 2.26 2.672 3.693 4.924 3.569 5.606 4.144 12.916 10.257 15.181 1.552 0.575 3.349 0.087 4.513 0.41 1.7 0.472 2.59 2.413 4.513 1.641-0.262-3.717-4.584-4.94-5.744-7.796-3.106-7.648 0.765-20.416 3.282-25.438 3.632-7.246 8.917-12.959 20.515-12.309 3.815 0.214 8.825 2.677 11.899 4.924 2.562 1.872 4.932 3.348 3.693 8.206-4.425-0.529-4.818-7.177-9.438-6.155-1.919 0.722 0.15 3.378-0.821 4.514-9.83 2.616-17.972 6.919-22.566 14.771-1.521-0.292-1.761 0.701-3.283 0.41-0.101 4.75 0.632 8.668 2.462 11.488 1.449-0.603 0.776-3.328 3.693-2.462 0.826 1.853-0.805 5.907 0.411 8.206 4.41 1.459 11.031-3.857 15.181 0 6.081-0.546 11.949 2.502 17.232 4.104 4.877 5.38 10.098 10.418 11.079 19.694 2.951 3.012 12.819 5.986 15.591 0.82 2.379-0.413 4.357 1.558 6.976 2.052 4.022 0.759 8.797-0.245 11.488 2.461-0.402-3.061-6.455-3.907-6.975-8.206-1.234 0.543-1.432 0.114-3.283 0.411-6.766-3.219-10.396-9.572-12.309-17.643-2.542 1.871-3.287 6.103-2.052 9.437 0.945 2.551 3.245 2.392 3.692 4.514-4.862 0.623-6.533-1.947-7.385-5.334-1.218-0.601-2.867-1.408-3.693-2.872-1.108-1.966-2.782-12.12-3.282-18.053-0.486-5.762 2.316-10.032 4.513-12.72-1.539-2.931-1.357-5.931-1.641-9.437-1.794-1.108-2.063 0.659-4.104 0.41-0.618-1.296-2.074-1.755-2.051-3.693 0.724-0.37 1.271-0.917 1.641-1.641 2.099-0.185 2.706 1.124 4.514 1.231 2.051-2.735 1.721-7.853 5.744-8.616 2.776 1.792 0.09 4.466-0.41 6.975-0.733 3.675 0.058 7.714 0.41 11.489 5.431-3.076 10.439-7.105 18.054-8.206 5.821-0.842 11.47-0.004 15.181-3.283 1.244 0.671 2.098 1.732 3.692 2.051 0.289-2.751-0.421-4.502-0.41-6.975-3.379-0.997-8.564-0.189-10.667-2.461-5.526 2.963-9.725 5.375-17.233 3.692-3.554-0.797-5.8-1.516-8.207-3.282-0.574-0.422-0.985-1.54-1.641-2.052-4.011-3.128-7.976-5.506-9.847-11.078-1.613-4.8-0.971-7.369-1.231-12.719-0.048-0.986-0.76-2.258-0.821-3.283-0.057-0.97 0.52-2.033 0.411-2.872-0.422-3.051-2.491-5.519-2.482-8.589 4.396-0.302 4.561 4.545 5.745 7.385 1.28 3.073 2.875 5.928 4.513 8.206-0.009 0.967 0.707 1.208 0.41 2.462 3.036 1.478 3.383 5.644 8.206 5.334 2.737-4.804 4.609-10.747 3.693-16.822-0.368-2.438-1.955-4.729-0.41-6.976 4.384 0.058 3.698 5.856 4.103 9.438 0.148 1.312 0.875 2.92 0.821 4.103-0.209 4.624-3.681 7.739-5.334 10.257 7.167 3.227 14.055 6.734 22.156 9.027 1.607 2.906 4.075 4.952 7.386 6.154 1.603-1.319 0.403-3.15 0.82-4.924 0.562-2.386 3.217-4.58 2.051-6.975-3.944 0.418-11.121-2.008-13.95-5.334-1.546 0.315-1.961-0.5-3.283-0.411-9.845-6.04-1.379-20.232 4.513-23.797 3.226 0.008 3.83 0.126 6.565 0.41-0.011 0.399-0.502 0.319-0.821 0.411-1.45-0.791-2.246 0.134-3.283 0.821-0.857 3.899 0.09 8.821 2.052 11.898 2.084 3.269 6.372 7.284 7.386 7.796 1.112 0.562 4.449 1.335 5.333 1.231 2.823-0.333 5.153-4.17 8.617-6.155 2.883-1.652 7.848-3.295 11.488-3.693 11.13-1.217 17.772 1.26 26.669 5.744 1.684 3.02 5.134 5.582 6.976 9.027 0.845 1.582 1.17 4.226 2.051 6.154 1.088 2.379 2.645 4.31 2.872 8.206 0.119 2.036-0.769 4.09-0.409 6.155 0.67 3.913 4.75 6.993 5.32 10.669zm-81.24-41.44c1.084 0.722 0.688 2.297 1.641 3.692 1.382 2.024 4.402 2.928 6.975 4.104 2.017 0.921 2.569 2.052 3.693 2.051 1.49-0.001 3.31-0.885 4.103-2.462-10.256-0.686-13.023-8.859-16.412-16.412-0.79 2.32 0.8 6.707 0 9.027zm109.96-1.231c7.662-2.249 13.762-0.697 20.104 2.051 0.251-0.023 0.485-0.061 0.41-0.41-2.453-1.385-4.741-4.006-8.616-4.514-2.365-0.31-5.238 0.865-8.616 1.231-2.354 0.255-5.006-0.327-6.975 0-4.138 0.687-7.961 3.723-9.438 5.744 5.21 1.072 8.78-2.824 13.14-4.102zm-38.57 38.568c0.598-1.638 1.439-3.102 1.642-4.513 0.67-4.698-0.249-8.639-1.231-11.898-3.029-10.049-10.745-17.62-19.694-20.925-5.476-2.022-16.434-1.346-21.336 0.411-6.498 2.327-13.196 8.149-15.181 14.36-0.61 0.485-1.833 0.355-1.642 1.641-2.098 6.796-2.241 13.63-0.821 19.695 0.219 0.934 2.064 5.706 2.462 6.155 2.104 2.367 5.019 6.065 6.565 7.385 3.003 2.564 7.916 4.21 12.309 5.744 1.734 0.606 3.091 1.473 4.514 1.642 4.189 0.498 8.276-1.084 12.719-0.821 1.143-1.191-1.347-1.064-0.821-2.872 0.098-1.625 1.683-1.761 2.873-1.23 0.135 1.503-0.456 2.28-0.821 3.282 1.68-0.098 2.311-1.245 4.103-1.23 1.093-1.212-1.523-1.205-0.821-3.283 0.775-1.035 2.56-2.677 4.104-1.641-0.053 1.726-1.59 1.966-1.642 3.693 6.92-2.305 10.33-9.025 12.72-15.595zm-89.44-15.181c-5.702-3.462-10.818-7.509-15.592-11.899-0.086-0.496-0.455-0.252-0.82 0 0.523 3.382 2.022 6.083 4.103 8.207 4.578 4.673 9.066 7.598 16.412 8.616 2.218 0.308 3.633 1.034 5.334 0.821 0.566-0.071 4.285-1.335 4.924-1.641 2.212-1.06 4.082-3.345 6.155-4.514-1.77-0.419-3.316-1.061-5.745-0.82 0.878 3.539-4.815 3.152-7.385 4.513-2.51-1.355-4.45-3.462-7.39-3.283zm211.3 2.872c0.569-0.524 0.251-1.937 0.82-2.462-3.23-0.609-3.33 2.202-0.82 2.462zm-81.24 11.489c-0.117 4.944-2.203 7.917-4.514 10.667-0.092 0.775 0.462 0.905 0.41 1.641-1.384 0.941-2.409 2.242-3.692 3.283-1.48 4.402-6.352 7.598-5.335 13.13 3.132-5.896 7.082-10.972 11.489-15.592 2.081-5.199 3.824-9.896 4.923-15.181-0.568-0.252-0.062-1.58-0.82-1.642-0.73 1.319-1.23 2.871-2.46 3.694zm-106.27-0.411c-2.704 2.22-5.343 4.503-9.847 4.924-1.544 2.148-4.097 3.289-6.975 4.103-1.42 2.135-3.044 4.068-5.745 4.924-0.055 1.859-1.004 2.825-1.231 4.513-0.862 0.506-1.6 1.135-2.462 1.641-1.486 5.08-5.53 7.6-5.334 14.361-1.355 1.768-2.805 6.207-1.23 7.385 1.621-6.312 5.146-10.72 9.847-13.951 0.965-3.262 2.76-4.54 4.923-6.564 1.083-1.014 2.296-1.899 3.283-2.872 2.399-2.364 3.59-5.218 5.334-7.386 2.007-2.494 6.25-3.221 8.616-5.333 0.406-1.637-1.226-1.236-0.821-2.873 0.15-1.006 3.86-2.137 1.63-2.872zm61.96 13.54c4.32 2.108 5.298 7.559 11.079 8.206-0.439-7.083 0.062-15.107-4.514-18.054-1.09 4.384-4.26 6.684-6.57 9.848zm-49.24 11.079c-0.254 1.096-1.092 2.035-1.23 3.282-0.71 6.398 1.478 12.756 2.872 18.053 2.799 1.845 4.626 5.271 7.796 6.976 1.768 0.95 4.29 0.796 6.155 1.641 0.929 0.421 2.009 1.54 2.872 2.051 1.12 0.664 1.872 1.569 3.282 1.642-3.261-3.535-7.159-6.619-10.257-10.668-4.75-6.208-8.138-14.803-8.617-24.208-0.142-2.797 0.896-5.007-0.41-7.795-0.585-0.099-0.691-0.676-1.23-0.821-0.67 2.884-0.46 6.574-1.23 9.852zm130.48-0.821c-4.274 0.84-7.177 3.816-10.258 6.154-2.956 2.244-7.152 3.95-8.616 7.796 7.813-2.307 12.136-8.106 18.874-11.488 1.585-2.521 4.369-6.021 4.513-8.616-1.71 1.829-3.38 3.717-4.5 6.154zm-233.46 16.822c-0.485 0.473-1.45 0.465-2.462 0.411-2.583 2.477-4.21 5.91-6.565 8.616-1.022 5.495-3.496 9.691-3.283 15.181 0.634 16.351 10.852 29.009 29.132 28.721 0.781-1.271 0.517-3.586 3.282-2.872 1.224 1.954-1.107 1.947-1.23 3.693 11.626 0.822 17.916-3.693 23.798-8.617 1.434-5.699 5.357-10.546 6.154-17.232 0.223-1.865 0.18-4.418 0-6.155-1.424-13.787-8.426-23.666-21.336-25.028-0.323 0.336 0.33 2.709-1.641 2.461-1.501-0.746-0.868-1.492-0.821-3.282-9.391-2.123-19.425-0.613-25.028 4.108zm163.3-4.513c2.349 0.659 3.633 2.384 5.333 3.693 0.57-3.218-3.28-5.76-5.33-3.693zm46.77 4.513c0.98-0.25 2.977 0.516 3.282-0.41-0.837-0.258-0.115-2.074-1.643-1.642-0.47 0.755-2.17 0.285-1.64 2.052zm-224.43 1.231c-5.348 1.763-11.645 2.579-16.002 5.334h-2.051c-1.878 2.619-5.822 5.383-8.206 7.795-1.222 1.236-2.594 2.197-3.282 3.283-2.364 3.728-3.352 9.114 1.23 10.257-1.318-5.562 2.09-7.744 4.513-10.668 4.978-0.083 6.521-3.599 11.079-4.103 3.627-2.791 6.936-6.53 10.668-8.616 1.309-0.732 3.485-0.567 4.103-2.461-0.348-0.612-1.321-0.596-2.052-0.823zm165.76 20.93c2.539-0.536 5.669-0.536 8.207 0 3.104-3.323 4.999-7.858 9.026-10.257-0.862-2.284-1.872-4.42-2.872-6.565-1.981-0.206-3.62-0.756-5.333-1.23-1.83 7.205-4.89 13.175-9.04 18.055zm172.74-15.18c-3.434-0.947-7.103-1.056-11.077-0.41-1.98 0.321-4.917 2.041-6.156 2.461-3.598 1.223-3.399 1.521-5.333 3.692-3.009 3.38-5.551 7.129-6.975 11.489-1.866 5.712 0.543 19.488 3.691 22.977 5.734 6.353 17.401 10.863 26.671 6.976 0.943 0.149 0.391 1.796 1.64 1.641 2.954-1.618 6.466-2.87 8.617-4.923 4.691-4.477 7.167-9.727 7.386-18.053 0.17-6.464-1.387-11.67-3.282-15.181-2.631-4.871-7.234-8.675-12.31-9.848-1.633 0.814 1.602 3.801-1.642 4.104-2.61-1.2 0.38-3.19-1.24-4.93zm-136.63 58.26c3.167 0.473 7.5-0.014 10.257-0.409 4.243-0.61 7.83-2.941 10.258-4.924 3.53-2.886 4.552-3.873 6.975-8.206 1.99-3.559 3.479-6.862 3.693-11.079 0.5-9.791-2.341-17.792-6.155-22.977-2.563-3.486-4.485-5.308-6.975-6.976-0.688-0.46-1.234-1.418-1.642-1.641-5.226-2.861-10.816-0.63-16.002 0.411-2.599 0.521-5.28 1.439-8.205 0.821-1.149 1.449-3.354 1.843-6.155 1.641-6.837 4.805-13.235 14.808-14.361 25.438-1.377 13.006 6.849 22.607 15.182 26.26 3.254 1.425 6.85 1.725 10.259 0.409 0.92 1.34 1.6 1.05 2.87 1.24zm100.11-49.24c1.972 0.492 3.666 1.258 5.744 1.642 2.342-2.172 4.365-4.662 5.745-7.796-4.49 1.39-8.87 2.89-11.48 6.16zm-9.85 2.87c-1.394 0.199-3.449 0.053-4.513 1.231 8.175 0.987 10.947 7.378 16.412 11.078-0.232-4.198 0.463-7.468 1.641-10.258-4.5-0.89-8.41-2.78-13.54-2.05zm-212.94 4.93c-0.913 0.229-2.484-0.475-4.103-0.411-3.055 0.123-5.833-0.724-8.206-1.641-0.163 2.2-1.973 9.34-0.821 10.668 1.203-0.807 2.023-1.929 3.283-2.872 3.581-2.681 7.638-3.949 11.488-5.744 0.973-0.454 3.351-0.962 2.872-2.462-2.08-0.49-2.26 1.88-4.51 2.45zm139.5 53.75c5.088 3.241 10.409 5.329 17.232 6.154 17.491 2.118 28.815-4.728 33.234-16.412 8.383-22.167-10.024-50.406-33.646-42.261 0.887 9.287 2.405 20.507-1.23 26.67-0.941 1.595-3.293 3.313-4.924 5.334-1.714 2.125-3.196 4.333-4.923 5.743-3.646 2.978-7.838 4.182-11.898 4.925 0.18 4.19 2.89 7.76 6.16 9.85zm47.59 6.56c-1.501 0.271-1.574-0.888-2.872-0.82-0.422 0.945-1.413 1.323-1.23 2.873 7.903 0.939 12.822-2.86 16.822-5.335 1.327-0.821 2.909-1.101 3.692-1.641 1.323-0.914 2.209-2.611 3.691-3.692 1.542-1.124 4.628-1.443 4.515-3.693-9.58 1.98-18.46 5.83-24.62 12.31zm-225.66-9.44c3.714 3.803 4.035 10.247 7.385 14.771 2.671 3.607 7.752 7.6 11.489 11.489 1.583 1.647 2.968 4.113 4.924 6.564 1.842 2.309 4.828 5.496 6.154 5.745 0.991 0.185 2.103-0.085 3.283-0.411 0.322-1.428-3.025-2.711-4.513-3.692 0.448-1.699-1.207-2.146-2.051-3.283-0.806-1.085-1.244-2.496-2.052-3.692-3.006-4.446-6.794-8.259-9.847-12.31-1.612-2.139-2.515-4.839-4.103-6.975-0.785-1.057-2.283-2.103-3.283-3.282-2.185-2.581-3.605-4.93-6.565-6.154-0.09-0.32-0.343-0.478-0.82-0.411-0.004 0.54-0.004 1.09-0.004 1.63zm-25.029 0.41c-4.717 4.944-6.073 15.996-4.923 25.027 0.76 5.97 2.297 8.709 4.514 12.309 0.84 1.366 1.796 4.651 3.692 3.283-6.357-7.627-7.039-25.404-3.692-35.697 0.532-1.635 2.361-4.304 0.82-4.922h-0.411zm196.95 12.72c4.584 1.177 7.24 2.343 13.129 1.64 3.436 2.856 10.488 2.095 13.95 4.924 1.826-0.772 4.275-0.922 6.976-0.819 3.743-2.548 9.467-3.116 10.667-8.207-12.312 3.92-27.754 2.74-37.337-3.692h-1.23c-0.36 3.76-3.96 4.27-6.16 6.16zm71.39 28.72c-0.456-1.251-1.804-2.455-2.462-3.692-2.553-4.807-3.784-10.981-6.564-14.361-2.717-1.732-5.151-3.8-9.027-2.461v1.23c7.162 4.149 12.086 13.127 12.72 23.388 0.271 4.401-0.624 9.091 2.053 12.719 3.25-4.36 5.43-10.93 3.28-16.83zm-54.98 2.47c0.279-2.787-1.091-5.039-1.23-7.797-0.267-5.205 2.468-11.405-3.693-10.257 0.13 2.604 2.495 2.976 3.283 4.923-0.502 0.594-1.566 0.623-2.052 1.231-0.558 5.663-2.419 11.035-0.82 16.821-0.816 1.511-2.683 1.968-4.103 2.872-1.365 3.697-3.476 6.646-5.335 9.848-1.079 0.426-2.678 0.332-2.461 2.053 7.101-0.969 9.675-6.463 14.359-9.848-0.79-3.26 1.67-6.09 2.05-9.83zm27.9 6.56c-0.193 2.758-1.82 5.537-2.051 8.206-0.274 3.16 0.632 6.08 0 9.027-0.543 2.53-1.646 5.129-1.642 8.205 4.168-1.316 6.554-6.587 6.564-12.308 0.003-1.391-0.788-2.551-0.82-4.103-0.079-3.917 2.445-7.633 2.462-11.079 0.009-1.675-1.49-4.106-1.231-5.744-4.289-2.412-0.753-12.649-7.385-12.72h-0.821c-0.16 7.35 5.44 13.2 4.93 20.5z" fill-rule="evenodd"/>
<metadata><rdf:RDF><cc:Work><dc:format>image/svg+xml</dc:format><dc:type rdf:resource="http://purl.org/dc/dcmitype/StillImage"/><cc:license rdf:resource="http://creativecommons.org/licenses/publicdomain/"/><dc:publisher><cc:Agent rdf:about="http://openclipart.org/"><dc:title>Openclipart</dc:title></cc:Agent></dc:publisher><dc:title>orange branch</dc:title><dc:date>2007-10-26T13:40:48</dc:date><dc:description>Line and Form by Walter Crane, 1914</dc:description><dc:source>http://openclipart.org/detail/7363/orange-branch-by-johnny_automatic</dc:source><dc:creator><cc:Agent><dc:title>johnny_automatic</dc:title></cc:Agent></dc:creator><dc:subject><rdf:Bag><rdf:li>branch</rdf:li><rdf:li>citrus</rdf:li><rdf:li>clip art</rdf:li><rdf:li>clipart</rdf:li><rdf:li>externalsource</rdf:li><rdf:li>food</rdf:li><rdf:li>fruit</rdf:li><rdf:li>image</rdf:li><rdf:li>media</rdf:li><rdf:li>orange</rdf:li><rdf:li>plant</rdf:li><rdf:li>png</rdf:li><rdf:li>public domain</rdf:li><rdf:li>svg</rdf:li></rdf:Bag></dc:subject></cc:Work><cc:License rdf:about="http://creativecommons.org/licenses/publicdomain/"><cc:permits rdf:resource="http://creativecommons.org/ns#Reproduction"/><cc:permits rdf:resource="http://creativecommons.org/ns#Distribution"/><cc:permits rdf:resource="http://creativecommons.org/ns#DerivativeWorks"/></cc:License></rdf:RDF></metadata></svg>
